<svg width="35" height="35" viewBox="0 0 35 35" fill="none" xmlns="http://www.w3.org/2000/svg">
<path d="M5.83334 7.45833C5.83334 4.14462 8.51963 1.45833 11.8333 1.45833H21.7083C25.0221 1.45833 27.7083 4.14462 27.7083 7.45833V29C27.7083 32.3137 25.0221 35 21.7083 35H12.8333C8.96735 35 5.83334 31.866 5.83334 28V7.45833Z" fill="white"/>
<path fill-rule="evenodd" clip-rule="evenodd" d="M0 17.5977C0 26.2981 6.31896 33.5329 14.5833 35V22.3606H10.2083V17.5H14.5833V13.6106C14.5833 9.23563 17.4023 6.80604 21.3894 6.80604C22.6523 6.80604 24.0144 7 25.2773 7.19396V11.6667H23.0417C20.9023 11.6667 20.4167 12.7356 20.4167 14.0977V17.5H25.0833L24.306 22.3606H20.4167V35C28.681 33.5329 35 26.2996 35 17.5977C35 7.91875 27.125 0 17.5 0C7.875 0 0 7.91875 0 17.5977Z" fill="#0076BE"/>
</svg>
