<svg width="331" height="84" viewBox="0 0 331 84" fill="none" xmlns="http://www.w3.org/2000/svg">
<path d="M40.1094 0C58.4745 0.0117551 74.4295 12.5568 78.7945 30.394C79.8419 34.6728 80.1476 39.001 79.8798 43.381C79.849 43.8676 79.7897 44.359 79.6784 44.8316C79.2187 46.7853 77.5172 47.3142 75.9769 46.0024C75.1144 45.2688 74.7518 44.3049 74.6902 43.2117C74.6025 41.6342 74.548 40.0566 74.4532 38.4791C74.2328 34.8303 73.8442 31.1933 72.4982 27.7585C68.0669 16.4571 59.8797 9.1337 48.0408 6.38536C35.972 3.58295 25.0951 6.43944 15.9814 14.9431C10.8391 19.7415 7.83676 25.786 6.19931 32.5686C1.4244 52.3548 15.7325 69.5925 32.5525 73.2812C39.0952 74.7153 45.4981 74.1817 51.8038 72.0305C52.6166 71.7531 53.4792 71.5321 54.3323 71.4733C55.4958 71.3957 56.2873 72.0187 56.6711 73.0743C57.0787 74.1864 56.8418 75.1714 55.8678 75.8838C55.2967 76.2999 54.6403 76.6338 53.9768 76.89C48.292 79.0859 42.4057 79.8265 36.344 79.2034C27.0928 78.2536 19.0335 74.6566 12.306 68.2877C5.84386 62.1703 1.91019 54.6729 0.507336 45.9154C-2.85287 24.9396 10.8107 5.45906 31.6473 0.907493C34.4341 0.30093 37.2635 0.0517224 40.1094 0Z" fill="#003C72"/>
<path d="M48.1427 42.8638C62.2494 47.8032 76.1926 52.684 90.323 57.6281C89.9794 57.875 89.7756 58.0607 89.5386 58.1853C87.3016 59.375 85.0576 60.5528 82.8182 61.7401C82.2827 62.0222 81.74 62.2973 81.2329 62.6217C80.1547 63.3082 80.0954 63.7619 80.939 64.6741C81.221 64.9798 81.522 65.2666 81.8348 65.5393C85.7258 68.9506 89.6192 72.3573 93.5149 75.7639C93.6571 75.8885 93.8088 76.0037 93.9462 76.1307C95.041 77.1533 95.1453 78.0115 94.1713 79.1776C93.1571 80.3907 92.0979 81.578 90.9675 82.6876C89.5718 84.0583 88.5244 84.1053 86.9343 82.9698C86.1974 82.4431 85.5054 81.8507 84.8301 81.2488C81.8964 78.6368 78.9793 76.0061 76.0433 73.3964C75.4817 72.8957 74.8869 72.416 74.2518 72.014C73.5859 71.5932 73.1404 71.6943 72.7044 72.3526C72.3324 72.9145 72.0338 73.5304 71.766 74.1487C70.7755 76.4269 69.8134 78.7144 68.8347 80.9973C68.5978 81.5474 68.33 82.0858 68.093 82.5912C67.9982 82.6148 67.9674 82.6312 67.939 82.6265C67.9034 82.6195 67.8537 82.603 67.8418 82.5748C61.3371 69.5431 54.8346 56.5114 48.3346 43.4774C48.2706 43.3575 48.2493 43.2141 48.1427 42.8638Z" fill="#22CFCD"/>
<path d="M169.435 13.3609C170.155 13.3609 170.876 13.3585 171.596 13.3609C172.921 13.3679 172.951 13.3844 173.435 14.5834C174.632 17.548 175.828 20.515 177.02 23.482C179.56 29.8015 182.096 36.1187 184.634 42.4382C184.731 42.6827 184.819 42.9343 184.949 43.1624C185.378 43.9029 186.124 43.9217 186.549 43.1953C186.738 42.8732 186.857 42.5088 186.999 42.1608C190.651 33.2081 194.302 24.2555 197.954 15.3004C198.814 13.1939 198.475 13.3656 200.899 13.3609C202.113 13.3585 203.326 13.3491 204.539 13.3632C205.926 13.3797 206.234 13.8428 205.696 15.1265C202.506 22.725 199.307 30.3187 196.11 37.9149C193.016 45.2665 189.921 52.6205 186.826 59.9721C186.71 60.2495 186.608 60.5364 186.461 60.7973C186.023 61.5661 185.215 61.5779 184.781 60.8185C184.613 60.527 184.501 60.2025 184.373 59.8898C178.295 45.0996 172.231 30.3046 166.117 15.5285C165.331 13.6312 165.93 13.241 167.617 13.3562C168.219 13.3961 168.828 13.3609 169.435 13.3609Z" fill="#003C72"/>
<path d="M28.0952 21.1498C29.4246 21.1686 30.9886 21.4131 32.4767 22.0267C35.8109 23.402 37.1687 26.3502 36.0289 29.7451C35.3109 31.8798 33.9886 33.6078 32.1781 34.9244C31.0549 35.7425 29.8156 36.4079 28.6213 37.132C28.1378 37.4259 27.6141 37.661 27.1568 37.9901C26.0999 38.7448 25.8938 39.4807 26.4933 40.6162C26.8961 41.3779 27.4412 42.0597 27.9032 42.7932C28.5241 43.7783 29.2018 44.7375 29.7161 45.7767C30.671 47.7069 30.3867 49.5383 28.8322 51.043C27.9743 51.8729 27.0099 52.6464 25.9696 53.2271C23.9554 54.3532 21.8511 54.2874 19.9648 52.9543C18.806 52.1362 17.7255 51.1441 16.8131 50.0626C13.7373 46.4185 12.0051 42.1585 12.2112 37.4165C12.4956 30.8665 15.5359 25.8048 21.4767 22.6662C23.4554 21.62 25.6852 21.1427 28.0952 21.1498Z" fill="#003C72"/>
<path d="M314.627 60.2119C306.094 60.3859 298.992 53.3587 299.177 44.4601C299.35 36.1281 306.132 29.5288 314.789 29.5123C323.694 29.4935 330.559 36.5348 330.431 45.022C330.301 53.7231 323.613 60.2284 314.627 60.2119ZM314.637 54.2027C318.969 54.3109 322.215 51.8188 323.189 47.6269C323.533 46.1481 323.547 44.6576 323.367 43.1482C322.886 39.1186 320.113 36.2033 316.054 35.6908C310.504 34.9925 307.31 38.4532 306.45 42.0432C306.097 43.522 306.061 45.0079 306.236 46.5172C306.779 51.1581 309.962 54.0852 314.637 54.2027Z" fill="#003C72"/>
<path d="M133.842 32.9048C134.518 32.3735 134.949 32.0044 135.406 31.6776C138.951 29.1432 142.776 28.8964 146.721 30.5045C149.207 31.5177 150.868 33.4197 151.534 36.0152C151.916 37.4964 152.195 39.0457 152.217 40.5692C152.3 46.3597 152.266 52.1503 152.264 57.9408C152.264 59.1492 152.067 59.3444 150.897 59.3561C149.532 59.3702 148.167 59.3702 146.804 59.3561C145.624 59.3444 145.449 59.1634 145.447 57.9408C145.439 53.0154 145.473 48.0901 145.425 43.1647C145.411 41.8223 145.288 40.4563 145.006 39.1444C144.508 36.8169 143.183 35.7848 140.79 35.6156C140.563 35.5991 140.335 35.5991 140.108 35.5991C136.771 35.5803 134.923 37.0027 134.323 40.2776C134.015 41.968 133.887 43.7101 133.861 45.4311C133.797 49.4537 133.84 53.4786 133.84 57.5012C133.84 57.7645 133.852 58.0278 133.835 58.2911C133.788 59.067 133.57 59.335 132.818 59.3514C131.228 59.382 129.634 59.3796 128.044 59.3514C127.34 59.3373 127.105 59.0717 127.041 58.3922C127.017 58.1313 127.034 57.8656 127.034 57.6023C127.034 49.1033 127.034 40.6068 127.034 32.1078C127.034 31.9198 127.027 31.7317 127.036 31.5436C127.077 30.6479 127.304 30.3916 128.188 30.3798C129.705 30.3587 131.221 30.3563 132.736 30.3822C133.565 30.3963 133.792 30.6502 133.835 31.4778C133.859 31.8704 133.842 32.2701 133.842 32.9048Z" fill="#003C72"/>
<path d="M268.812 40.8137C268.812 37.9195 268.812 35.0254 268.812 32.1313C268.812 31.868 268.793 31.6024 268.824 31.3414C268.9 30.662 269.149 30.3869 269.833 30.3751C271.423 30.3469 273.016 30.3469 274.606 30.3775C275.307 30.3916 275.525 30.6526 275.58 31.3555C275.604 31.6541 275.587 31.9574 275.587 32.2583C275.587 37.0685 275.587 41.881 275.587 46.6912C275.587 48.1253 275.703 49.5453 276.217 50.9042C276.957 52.8532 278.367 53.9323 280.459 54.1416C284.187 54.5107 286.483 52.6933 286.916 48.9764C287.021 48.083 287.047 47.1755 287.049 46.2751C287.061 41.6153 287.054 36.9533 287.056 32.2936C287.056 31.9926 287.04 31.6917 287.066 31.3908C287.13 30.622 287.343 30.3869 288.127 30.3728C289.679 30.3469 291.234 30.3446 292.786 30.3751C293.549 30.3892 293.753 30.6408 293.8 31.426C293.815 31.6517 293.805 31.8774 293.805 32.1031C293.805 37.2142 293.829 42.3277 293.788 47.4388C293.779 48.7483 293.689 50.0767 293.44 51.358C292.592 55.705 289.796 58.3546 285.649 59.6218C282.687 60.5293 279.663 60.4682 276.696 59.5301C272.146 58.0913 269.229 54.4448 268.959 49.7146C268.791 46.7523 268.814 43.7806 268.753 40.8137C268.774 40.8137 268.793 40.8137 268.812 40.8137Z" fill="#003C72"/>
<path d="M117.216 36.3914C117.216 43.4209 117.216 50.4481 117.216 57.4777C117.216 57.8162 117.228 58.1548 117.2 58.491C117.155 59.0129 116.852 59.3373 116.321 59.342C114.579 59.3585 112.835 59.3608 111.093 59.342C110.501 59.335 110.216 58.9612 110.193 58.3922C110.179 58.0913 110.186 57.7904 110.186 57.4894C110.186 43.3951 110.186 29.3007 110.186 15.2064C110.186 14.9807 110.176 14.755 110.188 14.5293C110.235 13.6477 110.463 13.3914 111.363 13.3702C112.764 13.3397 114.167 13.3561 115.567 13.3608C117.039 13.3655 117.212 13.5348 117.214 14.9642C117.217 20.1882 117.214 25.4122 117.214 30.6385C117.217 32.5569 117.216 34.473 117.216 36.3914Z" fill="#003C72"/>
<path d="M252.205 47.9467C252.205 44.6764 252.21 41.4061 252.203 38.1335C252.201 36.8334 252.07 36.7065 250.805 36.65C249.551 36.5936 249.357 36.4126 249.345 35.1783C249.331 33.9746 249.324 32.7708 249.35 31.5695C249.371 30.5915 249.587 30.4034 250.573 30.3611C250.762 30.354 250.952 30.3705 251.141 30.3517C251.888 30.2788 252.141 30.0319 252.198 29.296C252.224 28.9598 252.208 28.6189 252.208 28.2804C252.208 25.9129 252.201 23.5431 252.21 21.1756C252.215 19.9249 252.412 19.7345 253.663 19.7227C254.99 19.7133 256.314 19.7109 257.641 19.725C258.779 19.7368 258.973 19.9249 258.978 21.0346C258.99 23.402 258.983 25.7719 258.983 28.1393C258.983 28.4027 258.978 28.666 258.985 28.9293C259.011 30.0554 259.276 30.3352 260.388 30.354C261.26 30.3705 262.132 30.3446 263.002 30.3611C264.002 30.3799 264.213 30.5797 264.229 31.5483C264.248 32.8273 264.248 34.1039 264.229 35.3828C264.215 36.375 263.968 36.6101 262.921 36.6406C262.087 36.6641 261.253 36.6383 260.421 36.65C259.184 36.6641 258.987 36.8569 258.985 38.1194C258.978 44.5847 258.983 51.0524 258.983 57.5177C258.983 59.3303 258.964 59.3515 257.151 59.3515C256.013 59.3515 254.878 59.3562 253.741 59.3491C252.397 59.342 252.215 59.1728 252.21 57.8656C252.201 55.0467 252.208 52.2255 252.208 49.4066C252.205 48.9247 252.205 48.4357 252.205 47.9467Z" fill="#003C72"/>
<path d="M233.613 32.7614C234.039 32.39 234.324 32.1619 234.584 31.9104C237.786 28.8047 241.613 29.0891 244.869 30.6902C245.7 31.0993 245.826 31.4778 245.414 32.3336C244.776 33.6548 244.115 34.9643 243.435 36.2645C243.004 37.0873 242.686 37.1367 241.769 36.7864C241.032 36.5043 240.279 36.1822 239.509 36.0952C237.193 35.8319 235.366 36.9462 234.437 39.088C233.703 40.7808 233.572 42.584 233.561 44.3919C233.537 48.7883 233.554 53.1871 233.551 57.5835C233.551 57.8844 233.554 58.1853 233.535 58.4839C233.501 59.0129 233.217 59.335 232.674 59.3397C231.008 59.3538 229.34 59.3514 227.674 59.3397C227.127 59.335 226.857 58.9988 226.802 58.4863C226.771 58.1877 226.771 57.8868 226.771 57.5858C226.769 49.0916 226.769 40.5974 226.771 32.1032C226.771 31.8022 226.771 31.5013 226.807 31.2027C226.871 30.6878 227.162 30.3775 227.705 30.3728C229.333 30.3634 230.963 30.3446 232.591 30.3775C233.276 30.3916 233.485 30.6573 233.542 31.3814C233.577 31.7787 233.584 32.176 233.613 32.7614Z" fill="#003C72"/>
<path d="M218.241 44.8457C218.241 49.0963 218.241 53.3469 218.241 57.5976C218.241 57.8609 218.255 58.1266 218.234 58.3875C218.179 59.0411 217.968 59.3232 217.35 59.3373C215.681 59.3702 214.013 59.3585 212.345 59.3397C211.805 59.3326 211.532 58.98 211.473 58.4722C211.442 58.2112 211.454 57.9455 211.454 57.6822C211.454 49.1433 211.454 40.6044 211.454 32.0655C211.454 31.8022 211.44 31.5365 211.468 31.2756C211.527 30.7137 211.831 30.3728 212.426 30.3704C214.056 30.3634 215.686 30.3469 217.317 30.3775C217.937 30.3892 218.172 30.6737 218.231 31.3014C218.257 31.5624 218.238 31.8281 218.238 32.0914C218.241 36.3444 218.241 40.595 218.241 44.8457Z" fill="#003C72"/>
<path d="M42.8464 60.4165C42.863 64.2228 39.9531 67.1521 36.1379 67.1709C32.4175 67.1897 29.2374 64.1475 29.2018 60.5387C29.1639 56.8217 32.3701 53.622 36.1237 53.6314C39.8559 53.6408 42.8322 56.6431 42.8464 60.4165Z" fill="#003C72"/>
<path d="M35.0763 15.867C35.0857 13.1728 37.1947 11.0075 39.8227 10.9934C42.3843 10.9793 44.8109 13.3397 44.8227 15.86C44.8346 18.4226 42.4768 20.7078 39.8369 20.6937C37.145 20.6796 35.0691 18.573 35.0763 15.867Z" fill="#003C72"/>
<path d="M44.4247 26.8486C44.4531 24.2484 46.6925 22.1419 49.3868 22.1748C52.1593 22.2101 54.2138 24.2625 54.1806 26.9685C54.1498 29.6675 52.0266 31.7529 49.3275 31.7364C46.6427 31.7199 44.3962 29.4794 44.4247 26.8486Z" fill="#003C72"/>
<path d="M210.471 22.7884C210.463 20.3527 212.39 18.432 214.84 18.4249C217.298 18.4179 219.243 20.3198 219.262 22.7437C219.281 25.1676 217.34 27.1707 214.949 27.1966C212.482 27.2248 210.478 25.2523 210.471 22.7884Z" fill="#003C72"/>
</svg>
