<svg width="18" height="19" viewBox="0 0 18 19" fill="none" xmlns="http://www.w3.org/2000/svg">
<path fill-rule="evenodd" clip-rule="evenodd" d="M5.3093 0.8025C6.24237 0.759545 6.53987 0.75 8.91669 0.75C11.2935 0.75 11.591 0.760341 12.5233 0.8025C13.4556 0.844659 14.0919 0.993409 14.6487 1.20898C15.2318 1.42932 15.7608 1.77375 16.1983 2.2192C16.6437 2.65591 16.9874 3.18409 17.2069 3.76795C17.4233 4.32477 17.5712 4.96114 17.6142 5.89182C17.6571 6.82648 17.6667 7.12398 17.6667 9.5C17.6667 11.8768 17.6563 12.1743 17.6142 13.1074C17.572 14.0381 17.4233 14.6744 17.2069 15.2312C16.9874 15.8152 16.6432 16.3442 16.1983 16.7816C15.7608 17.227 15.2318 17.5707 14.6487 17.7902C14.0919 18.0066 13.4556 18.1545 12.5249 18.1975C11.591 18.2405 11.2935 18.25 8.91669 18.25C6.53987 18.25 6.24237 18.2397 5.3093 18.1975C4.37862 18.1553 3.74226 18.0066 3.18544 17.7902C2.60151 17.5707 2.07245 17.2265 1.6351 16.7816C1.18994 16.3446 0.84546 15.8158 0.625664 15.232C0.410096 14.6752 0.262142 14.0389 0.219187 13.1082C0.176232 12.1735 0.166687 11.876 0.166687 9.5C0.166687 7.12318 0.177028 6.82568 0.219187 5.89341C0.261346 4.96114 0.410096 4.32477 0.625664 3.76795C0.845785 3.18416 1.19053 2.65536 1.63589 2.21841C2.07263 1.77335 2.60115 1.42888 3.18464 1.20898C3.74146 0.993409 4.37782 0.845455 5.30851 0.8025H5.3093ZM12.4525 2.3775C11.5298 2.33534 11.2529 2.32659 8.91669 2.32659C6.58044 2.32659 6.30362 2.33534 5.38089 2.3775C4.52737 2.41648 4.06441 2.55886 3.75578 2.67898C3.34771 2.83807 3.05578 3.02659 2.74953 3.33284C2.45922 3.61527 2.23581 3.95909 2.09566 4.33909C1.97555 4.64773 1.83316 5.11068 1.79419 5.9642C1.75203 6.88693 1.74328 7.16375 1.74328 9.5C1.74328 11.8363 1.75203 12.1131 1.79419 13.0358C1.83316 13.8893 1.97555 14.3523 2.09566 14.6609C2.23566 15.0403 2.45919 15.3848 2.74953 15.6672C3.03191 15.9575 3.37635 16.181 3.75578 16.321C4.06441 16.4411 4.52737 16.5835 5.38089 16.6225C6.30362 16.6647 6.57964 16.6734 8.91669 16.6734C11.2537 16.6734 11.5298 16.6647 12.4525 16.6225C13.306 16.5835 13.769 16.4411 14.0776 16.321C14.4857 16.1619 14.7776 15.9734 15.0838 15.6672C15.3742 15.3848 15.5977 15.0403 15.7377 14.6609C15.8578 14.3523 16.0002 13.8893 16.0392 13.0358C16.0813 12.1131 16.0901 11.8363 16.0901 9.5C16.0901 7.16375 16.0813 6.88693 16.0392 5.9642C16.0002 5.11068 15.8578 4.64773 15.7377 4.33909C15.5786 3.93102 15.3901 3.63909 15.0838 3.33284C14.8014 3.04256 14.4576 2.81914 14.0776 2.67898C13.769 2.55886 13.306 2.41648 12.4525 2.3775ZM7.79907 12.1974C8.42323 12.4572 9.11824 12.4923 9.76538 12.2966C10.4125 12.1009 10.9717 11.6866 11.3473 11.1245C11.7229 10.5624 11.8917 9.88728 11.8249 9.21452C11.7581 8.54175 11.4598 7.91305 10.9809 7.4358C10.6756 7.13072 10.3065 6.89712 9.90013 6.75182C9.49375 6.60652 9.06021 6.55313 8.63072 6.59549C8.20123 6.63785 7.78647 6.77491 7.4163 6.99681C7.04614 7.2187 6.72978 7.51991 6.49 7.87875C6.25021 8.23758 6.09297 8.64512 6.0296 9.07201C5.96622 9.49891 5.99828 9.93455 6.12348 10.3476C6.24868 10.7606 6.46389 11.1407 6.75362 11.4606C7.04336 11.7804 7.40041 12.0321 7.79907 12.1974ZM5.73646 6.31977C6.15409 5.90214 6.6499 5.57085 7.19556 5.34483C7.74122 5.11881 8.32606 5.00248 8.91669 5.00248C9.50731 5.00248 10.0921 5.11881 10.6378 5.34483C11.1835 5.57085 11.6793 5.90214 12.0969 6.31977C12.5145 6.73741 12.8458 7.23321 13.0719 7.77887C13.2979 8.32454 13.4142 8.90938 13.4142 9.5C13.4142 10.0906 13.2979 10.6755 13.0719 11.2211C12.8458 11.7668 12.5145 12.2626 12.0969 12.6802C11.2535 13.5237 10.1095 13.9975 8.91669 13.9975C7.72387 13.9975 6.57991 13.5237 5.73646 12.6802C4.89301 11.8368 4.41917 10.6928 4.41917 9.5C4.41917 8.30718 4.89301 7.16322 5.73646 6.31977ZM14.4117 5.67227C14.5152 5.57465 14.598 5.45725 14.6553 5.32702C14.7126 5.1968 14.7432 5.05641 14.7453 4.91415C14.7474 4.77189 14.7209 4.63066 14.6674 4.49883C14.6139 4.36699 14.5345 4.24722 14.4339 4.14662C14.3333 4.04602 14.2136 3.96663 14.0817 3.91314C13.9499 3.85965 13.8087 3.83316 13.6664 3.83524C13.5241 3.83731 13.3837 3.86791 13.2535 3.92521C13.1233 3.98252 13.0059 4.06537 12.9083 4.16886C12.7184 4.37014 12.6145 4.63748 12.6185 4.91415C12.6225 5.19081 12.7342 5.45502 12.9299 5.65067C13.1255 5.84632 13.3897 5.95802 13.6664 5.96206C13.9431 5.96609 14.2104 5.86214 14.4117 5.67227Z" fill="white"/>
</svg>
