<svg width="18" height="19" viewBox="0 0 18 19" fill="none" xmlns="http://www.w3.org/2000/svg">
<path fill-rule="evenodd" clip-rule="evenodd" d="M6.91728 6.81733H10.1673V8.44003C10.6365 7.50719 11.8365 6.66764 13.6399 6.66764C17.0973 6.66764 17.9166 8.52572 17.9166 11.9349V18.25H14.4178V12.7116C14.4178 10.77 13.9487 9.67441 12.7573 9.67441C11.1045 9.67441 10.4172 10.8556 10.4172 12.7116V18.25H6.91728V6.81733ZM0.916844 18.1014H4.41673V6.66764H0.916844V18.1003V18.1014ZM4.9175 2.93846C4.9241 3.2364 4.87077 3.53264 4.76066 3.80981C4.65054 4.08698 4.48585 4.33949 4.27625 4.55252C4.06665 4.76555 3.81636 4.93481 3.54008 5.05037C3.26379 5.16592 2.96707 5.22545 2.66734 5.22545C2.3676 5.22545 2.07088 5.16592 1.79459 5.05037C1.51831 4.93481 1.26802 4.76555 1.05842 4.55252C0.84882 4.33949 0.684129 4.08698 0.574012 3.80981C0.463896 3.53264 0.410573 3.2364 0.417172 2.93846C0.430124 2.35365 0.672883 1.79714 1.09346 1.38809C1.51404 0.979048 2.07899 0.75 2.66734 0.75C3.25568 0.75 3.82063 0.979048 4.24121 1.38809C4.66179 1.79714 4.90455 2.35365 4.9175 2.93846Z" fill="white"/>
</svg>
