<svg width="70" height="62" viewBox="0 0 70 62" fill="none" xmlns="http://www.w3.org/2000/svg">
<path d="M29.6043 0C43.1594 0.0086763 54.9356 9.26803 58.1573 22.4335C58.9304 25.5916 59.156 28.7862 58.9584 32.019C58.9357 32.3782 58.8919 32.7409 58.8097 33.0897C58.4704 34.5317 57.2146 34.9221 56.0777 33.9538C55.4411 33.4124 55.1735 32.701 55.128 31.8941C55.0633 30.7297 55.0231 29.5654 54.9531 28.401C54.7905 25.7079 54.5036 23.0234 53.5102 20.4882C50.2395 12.1468 44.1965 6.74149 35.4584 4.71297C26.5505 2.64454 18.5225 4.75288 11.7957 11.0293C8.00025 14.571 5.78423 19.0323 4.57564 24.0386C1.05134 38.6425 11.612 51.3655 24.0267 54.0881C28.8558 55.1466 33.5816 54.7527 38.2358 53.1649C38.8358 52.9602 39.4724 52.797 40.1021 52.7537C40.9608 52.6964 41.545 53.1562 41.8284 53.9354C42.1292 54.7562 41.9543 55.4832 41.2354 56.009C40.8139 56.3162 40.3294 56.5626 39.8397 56.7517C35.6438 58.3724 31.2992 58.919 26.8251 58.4592C19.9969 57.7582 14.0484 55.1032 9.08291 50.4024C4.31329 45.8872 1.40989 40.3535 0.374459 33.8896C-2.10567 18.4076 7.97927 4.02928 23.3585 0.669811C25.4154 0.222113 27.5037 0.0381757 29.6043 0Z" fill="#003C72"/>
<path d="M35.5336 31.6373C45.9456 35.2831 56.2369 38.8854 66.6664 42.5347C66.4128 42.7169 66.2624 42.854 66.0875 42.946C64.4364 43.824 62.7801 44.6934 61.1272 45.5697C60.732 45.7779 60.3314 45.9809 59.9571 46.2204C59.1613 46.7271 59.1176 47.062 59.7403 47.7353C59.9484 47.9609 60.1705 48.1726 60.4014 48.3739C63.2733 50.8917 66.147 53.4061 69.0224 55.9205C69.1273 56.0125 69.2393 56.0975 69.3407 56.1912C70.1488 56.946 70.2257 57.5794 69.5069 58.4401C68.7583 59.3355 67.9765 60.2118 67.1422 61.0308C66.112 62.0425 65.3389 62.0772 64.1653 61.2391C63.6214 60.8504 63.1106 60.4131 62.6122 59.9689C60.4469 58.041 58.2938 56.0992 56.1267 54.1731C55.7122 53.8035 55.2732 53.4495 54.8045 53.1528C54.313 52.8421 53.9842 52.9168 53.6624 53.4026C53.3878 53.8174 53.1674 54.272 52.9697 54.7284C52.2386 56.4098 51.5285 58.0983 50.8062 59.7832C50.6313 60.1892 50.4336 60.5866 50.2587 60.9597C50.1888 60.977 50.166 60.9892 50.145 60.9857C50.1188 60.9805 50.0821 60.9684 50.0733 60.9476C45.2722 51.329 40.4729 41.7105 35.6753 32.0902C35.628 32.0017 35.6123 31.8958 35.5336 31.6373Z" fill="#003C72"/>
<path d="M20.7367 15.6104C21.7179 15.6243 22.8723 15.8047 23.9707 16.2576C26.4316 17.2728 27.4338 19.4488 26.5925 21.9545C26.0625 23.5301 25.0866 24.8055 23.7503 25.7773C22.9213 26.3811 22.0065 26.8722 21.125 27.4067C20.7682 27.6236 20.3817 27.7971 20.0441 28.0401C19.264 28.5971 19.1119 29.1402 19.5544 29.9783C19.8517 30.5406 20.254 31.0438 20.5951 31.5852C21.0533 32.3123 21.5535 33.0203 21.9331 33.7872C22.6379 35.2119 22.4281 36.5637 21.2807 37.6742C20.6475 38.2868 19.9357 38.8577 19.1679 39.2863C17.6812 40.1175 16.128 40.0689 14.7358 39.085C13.8805 38.4811 13.083 37.7488 12.4096 36.9506C10.1393 34.261 8.86079 31.1167 9.01295 27.6166C9.22284 22.7822 11.4668 19.0462 15.8517 16.7296C17.3121 15.9574 18.958 15.6052 20.7367 15.6104Z" fill="#003C72"/>
<path d="M31.6245 44.5927C31.6367 47.4021 29.4889 49.5642 26.673 49.5781C23.927 49.592 21.5798 47.3466 21.5536 44.683C21.5256 41.9395 23.892 39.5778 26.6625 39.5848C29.4172 39.5917 31.614 41.8076 31.6245 44.5927Z" fill="#003C72"/>
<path d="M25.8894 11.7113C25.8964 9.72265 27.4531 8.12447 29.3928 8.11406C31.2835 8.10365 33.0745 9.84585 33.0832 11.706C33.092 13.5975 31.3517 15.2842 29.4032 15.2737C27.4163 15.2633 25.8842 13.7085 25.8894 11.7113Z" fill="#003C72"/>
<path d="M32.7894 19.8166C32.8103 17.8974 34.4632 16.3426 36.4518 16.3669C38.4982 16.3929 40.0146 17.9078 39.9901 19.9051C39.9674 21.8972 38.4003 23.4364 36.4081 23.4242C34.4264 23.4121 32.7684 21.7584 32.7894 19.8166Z" fill="#003C72"/>
</svg>
