<svg width="249" height="63" viewBox="0 0 249 63" fill="none" xmlns="http://www.w3.org/2000/svg">
<path d="M30.1637 0C43.9749 0.00884024 55.9736 9.44315 59.2562 22.8573C60.0439 26.0752 60.2738 29.3302 60.0724 32.624C60.0493 32.99 60.0047 33.3595 59.921 33.7149C59.5752 35.1842 58.2957 35.582 57.1373 34.5954C56.4887 34.0438 56.216 33.3189 56.1697 32.4967C56.1037 31.3104 56.0627 30.124 55.9915 28.9377C55.8257 26.1936 55.5335 23.4585 54.5212 20.8753C51.1887 12.3763 45.0316 6.86887 36.1284 4.80202C27.0522 2.69451 18.8724 4.84269 12.0185 11.2377C8.15142 14.8463 5.89352 19.392 4.6621 24.4928C1.0712 39.3727 11.8314 52.336 24.4807 55.1101C29.401 56.1886 34.2162 55.7872 38.9583 54.1695C39.5696 53.9608 40.2182 53.7946 40.8598 53.7504C41.7348 53.6921 42.33 54.1606 42.6187 54.9545C42.9252 55.7908 42.747 56.5316 42.0146 57.0673C41.5851 57.3802 41.0915 57.6313 40.5925 57.824C36.3173 59.4754 31.8906 60.0323 27.332 59.5638C20.3747 58.8495 14.3139 56.1444 9.25453 51.3547C4.39479 46.7543 1.43653 41.116 0.381534 34.53C-2.14546 18.7555 8.13004 4.10541 23.7999 0.682467C25.8956 0.22631 28.0234 0.0388971 30.1637 0Z" fill="white"/>
<path d="M36.205 32.2349C46.8137 35.9495 57.2995 39.62 67.9261 43.3382C67.6677 43.5239 67.5144 43.6635 67.3362 43.7572C65.6539 44.6519 63.9663 45.5377 62.2822 46.4305C61.8795 46.6427 61.4714 46.8495 61.09 47.0935C60.2792 47.6098 60.2346 47.951 60.869 48.637C61.0811 48.8669 61.3074 49.0826 61.5427 49.2877C64.4688 51.8531 67.3968 54.415 70.3266 56.9769C70.4335 57.0706 70.5475 57.1573 70.6509 57.2528C71.4742 58.0219 71.5526 58.6672 70.8202 59.5441C70.0575 60.4565 69.2609 61.3493 68.4108 62.1838C67.3612 63.2146 66.5735 63.25 65.3777 62.396C64.8235 62 64.3031 61.5544 63.7952 61.1018C61.589 59.1375 59.3953 57.159 57.1873 55.1965C56.7649 54.8199 56.3176 54.4592 55.84 54.1569C55.3392 53.8404 55.0042 53.9164 54.6763 54.4115C54.3965 54.8341 54.172 55.2973 53.9706 55.7623C53.2257 57.4755 52.5022 59.1958 51.7662 60.9126C51.5879 61.3263 51.3866 61.7312 51.2084 62.1113C51.1371 62.129 51.1139 62.1414 51.0925 62.1379C51.0658 62.1326 51.0284 62.1202 51.0195 62.099C46.1276 52.2987 41.2376 42.4984 36.3494 32.6963C36.3012 32.6062 36.2852 32.4983 36.205 32.2349Z" fill="white"/>
<path d="M127.421 10.0477C127.963 10.0477 128.504 10.0459 129.046 10.0477C130.042 10.053 130.066 10.0653 130.429 10.967C131.329 13.1966 132.229 15.4278 133.125 17.6591C135.036 22.4116 136.943 27.1624 138.851 31.9149C138.924 32.0988 138.99 32.2879 139.088 32.4594C139.411 33.0164 139.972 33.0305 140.291 32.4842C140.434 32.242 140.523 31.9679 140.63 31.7063C143.376 24.9735 146.122 18.2408 148.868 11.5063C149.515 9.92213 149.26 10.0512 151.083 10.0477C151.996 10.0459 152.908 10.0388 153.821 10.0494C154.863 10.0618 155.095 10.4101 154.69 11.3755C152.292 17.0898 149.886 22.8006 147.482 28.5132C145.154 34.0418 142.827 39.5723 140.5 45.101C140.412 45.3096 140.336 45.5253 140.225 45.7216C139.896 46.2997 139.288 46.3086 138.962 45.7375C138.835 45.5182 138.751 45.2743 138.655 45.0391C134.084 33.9163 129.524 22.79 124.926 11.6778C124.334 10.251 124.785 9.95749 126.054 10.0441C126.507 10.0742 126.965 10.0477 127.421 10.0477Z" fill="white"/>
<path d="M21.1286 15.9053C22.1283 15.9195 23.3045 16.1034 24.4237 16.5648C26.931 17.5991 27.9522 19.8163 27.095 22.3693C26.555 23.9747 25.5606 25.2742 24.1991 26.2643C23.3544 26.8796 22.4224 27.38 21.5242 27.9245C21.1607 28.1455 20.7668 28.3223 20.4229 28.5699C19.6281 29.1374 19.473 29.6908 19.9239 30.5448C20.2268 31.1176 20.6367 31.6304 20.9842 32.182C21.4511 32.9228 21.9608 33.6442 22.3475 34.4256C23.0657 35.8772 22.8519 37.2545 21.6828 38.3861C21.0377 39.0102 20.3124 39.5919 19.5301 40.0286C18.0153 40.8755 16.4328 40.826 15.0143 39.8235C14.1428 39.2082 13.3302 38.4621 12.6441 37.6488C10.3309 34.9083 9.02823 31.7046 9.18327 28.1385C9.39712 23.2127 11.6835 19.4061 16.1512 17.0457C17.6393 16.2589 19.3162 15.9 21.1286 15.9053Z" fill="white"/>
<path d="M236.611 45.2815C230.194 45.4124 224.853 40.1277 224.992 33.4356C225.122 27.1697 230.222 22.2067 236.732 22.1944C243.429 22.1802 248.592 27.4755 248.496 33.8582C248.398 40.4017 243.369 45.2939 236.611 45.2815ZM236.618 40.7624C239.876 40.8437 242.317 38.9696 243.05 35.8172C243.308 34.7051 243.319 33.5841 243.183 32.449C242.822 29.4186 240.737 27.2262 237.684 26.8408C233.51 26.3157 231.108 28.9183 230.461 31.6181C230.195 32.7302 230.169 33.8476 230.301 34.9827C230.709 38.4728 233.102 40.674 236.618 40.7624Z" fill="white"/>
<path d="M100.654 24.7455C101.162 24.3459 101.486 24.0684 101.83 23.8226C104.496 21.9166 107.372 21.731 110.34 22.9403C112.209 23.7024 113.458 25.1327 113.959 27.0847C114.246 28.1985 114.456 29.3637 114.472 30.5094C114.535 34.8641 114.51 39.2188 114.508 43.5735C114.508 44.4823 114.36 44.629 113.48 44.6378C112.453 44.6484 111.427 44.6484 110.402 44.6378C109.515 44.629 109.383 44.4929 109.381 43.5735C109.376 39.8694 109.401 36.1654 109.365 32.4613C109.354 31.4517 109.262 30.4245 109.049 29.4379C108.675 27.6876 107.679 26.9114 105.879 26.7841C105.708 26.7717 105.537 26.7717 105.366 26.7717C102.857 26.7576 101.467 27.8272 101.016 30.2901C100.784 31.5614 100.688 32.8715 100.668 34.1657C100.62 37.1908 100.652 40.2177 100.652 43.2428C100.652 43.4409 100.661 43.6389 100.649 43.8369C100.613 44.4204 100.449 44.6219 99.8842 44.6343C98.6884 44.6573 97.4891 44.6555 96.2933 44.6343C95.764 44.6237 95.5876 44.4239 95.5395 43.9129C95.5216 43.7167 95.5341 43.5169 95.5341 43.3189C95.5341 36.9274 95.5341 30.5377 95.5341 24.1462C95.5341 24.0047 95.5288 23.8633 95.5359 23.7218C95.5662 23.0482 95.7373 22.8555 96.402 22.8466C97.5425 22.8307 98.6831 22.829 99.8218 22.8484C100.446 22.859 100.617 23.05 100.649 23.6723C100.667 23.9676 100.654 24.2682 100.654 24.7455Z" fill="white"/>
<path d="M202.156 30.6931C202.156 28.5166 202.156 26.3402 202.156 24.1637C202.156 23.9657 202.142 23.7659 202.165 23.5696C202.222 23.0587 202.409 22.8518 202.924 22.843C204.12 22.8218 205.318 22.8218 206.513 22.8447C207.041 22.8553 207.205 23.0516 207.246 23.5802C207.264 23.8048 207.251 24.0329 207.251 24.2592C207.251 27.8766 207.251 31.4958 207.251 35.1132C207.251 36.1917 207.338 37.2596 207.725 38.2816C208.281 39.7473 209.342 40.5588 210.915 40.7162C213.718 40.9938 215.445 39.6271 215.771 36.8318C215.85 36.1599 215.869 35.4774 215.871 34.8003C215.88 31.296 215.875 27.79 215.876 24.2857C215.876 24.0594 215.864 23.8331 215.884 23.6068C215.932 23.0286 216.092 22.8518 216.682 22.8412C217.849 22.8218 219.018 22.82 220.186 22.843C220.759 22.8536 220.913 23.0428 220.948 23.6333C220.959 23.803 220.952 23.9728 220.952 24.1425C220.952 27.9862 220.97 31.8317 220.939 35.6755C220.932 36.6603 220.864 37.6592 220.677 38.6228C220.039 41.8919 217.937 43.8845 214.818 44.8375C212.59 45.52 210.316 45.474 208.085 44.7685C204.664 43.6865 202.47 40.9443 202.267 37.3869C202.14 35.1592 202.158 32.9244 202.112 30.6931C202.128 30.6931 202.142 30.6931 202.156 30.6931Z" fill="white"/>
<path d="M88.151 27.3678C88.151 32.6543 88.151 37.939 88.151 43.2254C88.151 43.48 88.1599 43.7346 88.1385 43.9875C88.1046 44.38 87.8765 44.624 87.4773 44.6275C86.1675 44.6399 84.8559 44.6417 83.546 44.6275C83.1005 44.6222 82.8867 44.3411 82.8689 43.9132C82.8582 43.6869 82.8635 43.4606 82.8635 43.2343C82.8635 32.6348 82.8635 22.0354 82.8635 11.4359C82.8635 11.2662 82.8564 11.0965 82.8653 10.9267C82.9009 10.2637 83.072 10.071 83.7492 10.0551C84.8024 10.0321 85.8574 10.0445 86.9106 10.048C88.0173 10.0515 88.1474 10.1788 88.1492 11.2538C88.151 15.1824 88.1492 19.111 88.1492 23.0414C88.151 24.4841 88.151 25.9251 88.151 27.3678Z" fill="white"/>
<path d="M189.667 36.0573C189.667 33.598 189.671 31.1386 189.666 28.6775C189.664 27.6998 189.566 27.6043 188.614 27.5619C187.671 27.5194 187.525 27.3833 187.516 26.4551C187.506 25.5498 187.5 24.6446 187.52 23.7411C187.536 23.0056 187.698 22.8642 188.439 22.8323C188.582 22.827 188.725 22.8394 188.867 22.8253C189.429 22.7705 189.619 22.5848 189.662 22.0314C189.682 21.7786 189.669 21.5222 189.669 21.2676C189.669 19.4872 189.664 17.705 189.671 15.9246C189.674 14.984 189.822 14.8408 190.763 14.8319C191.761 14.8248 192.757 14.8231 193.755 14.8337C194.611 14.8425 194.757 14.984 194.761 15.8185C194.769 17.5989 194.764 19.3811 194.764 21.1615C194.764 21.3596 194.761 21.5576 194.766 21.7556C194.785 22.6025 194.985 22.8129 195.821 22.827C196.477 22.8394 197.132 22.82 197.787 22.8323C198.539 22.8465 198.697 22.9968 198.71 23.7252C198.724 24.687 198.724 25.6471 198.71 26.6089C198.699 27.355 198.514 27.5318 197.726 27.5548C197.099 27.5725 196.471 27.553 195.846 27.5619C194.916 27.5725 194.768 27.7175 194.766 28.6669C194.761 33.529 194.764 38.3929 194.764 43.2551C194.764 44.6182 194.75 44.6341 193.387 44.6341C192.531 44.6341 191.678 44.6377 190.822 44.6324C189.812 44.6271 189.674 44.4998 189.671 43.5167C189.664 41.3968 189.669 39.2752 189.669 37.1553C189.667 36.7928 189.667 36.4251 189.667 36.0573Z" fill="white"/>
<path d="M175.685 24.6378C176.006 24.3584 176.22 24.1869 176.416 23.9977C178.823 21.6621 181.701 21.8761 184.15 23.0801C184.776 23.3877 184.87 23.6724 184.56 24.316C184.081 25.3096 183.583 26.2944 183.072 27.2722C182.748 27.891 182.509 27.9281 181.819 27.6647C181.265 27.4525 180.698 27.2103 180.119 27.1449C178.378 26.9468 177.004 27.7849 176.305 29.3956C175.753 30.6686 175.655 32.0247 175.646 33.3843C175.628 36.6905 175.641 39.9986 175.639 43.3048C175.639 43.5311 175.641 43.7574 175.626 43.982C175.601 44.3798 175.388 44.622 174.979 44.6255C173.727 44.6362 172.472 44.6344 171.219 44.6255C170.808 44.622 170.604 44.3692 170.563 43.9837C170.54 43.7592 170.54 43.5329 170.54 43.3066C170.538 36.9186 170.538 30.5307 170.54 24.1427C170.54 23.9164 170.54 23.6901 170.567 23.4655C170.615 23.0783 170.834 22.845 171.242 22.8414C172.467 22.8344 173.693 22.8202 174.917 22.845C175.432 22.8556 175.589 23.0554 175.632 23.5999C175.658 23.8987 175.664 24.1975 175.685 24.6378Z" fill="white"/>
<path d="M164.125 33.726C164.125 36.9226 164.125 40.1193 164.125 43.3159C164.125 43.5139 164.135 43.7137 164.119 43.91C164.078 44.4015 163.92 44.6137 163.455 44.6243C162.2 44.649 160.946 44.6402 159.691 44.626C159.285 44.6207 159.08 44.3555 159.035 43.9736C159.012 43.7774 159.021 43.5776 159.021 43.3796C159.021 36.958 159.021 30.5365 159.021 24.1149C159.021 23.9169 159.01 23.7171 159.032 23.5208C159.076 23.0983 159.304 22.8419 159.752 22.8401C160.978 22.8348 162.204 22.8225 163.43 22.8454C163.897 22.8543 164.073 23.0682 164.118 23.5403C164.137 23.7365 164.123 23.9363 164.123 24.1344C164.125 27.3328 164.125 30.5294 164.125 33.726Z" fill="white"/>
<path d="M32.222 45.4351C32.2345 48.2976 30.0461 50.5006 27.177 50.5147C24.3791 50.5289 21.9875 48.241 21.9608 45.5271C21.9323 42.7318 24.3435 40.3255 27.1663 40.3325C29.9731 40.3396 32.2114 42.5974 32.222 45.4351Z" fill="white"/>
<path d="M26.3786 11.9323C26.3857 9.90612 27.9718 8.27775 29.9481 8.26714C31.8745 8.25653 33.6994 10.0316 33.7083 11.927C33.7172 13.8542 31.944 15.5727 29.9588 15.5621C27.9344 15.5515 26.3733 13.9673 26.3786 11.9323Z" fill="white"/>
<path d="M33.4089 20.1914C33.4303 18.236 35.1144 16.6518 37.1406 16.6766C39.2256 16.7031 40.7707 18.2466 40.7457 20.2816C40.7226 22.3113 39.1258 23.8796 37.096 23.8672C35.0769 23.8548 33.3875 22.1699 33.4089 20.1914Z" fill="white"/>
<path d="M158.281 17.1375C158.276 15.3058 159.725 13.8613 161.567 13.856C163.416 13.8507 164.879 15.281 164.893 17.1039C164.907 18.9267 163.448 20.4331 161.649 20.4526C159.794 20.4738 158.287 18.9904 158.281 17.1375Z" fill="white"/>
</svg>
