<svg width="24" height="17" viewBox="0 0 24 17" fill="none" xmlns="http://www.w3.org/2000/svg">
<path d="M0.75 1.18463C0.75 0.875611 0.868526 0.579248 1.0795 0.360738C1.29048 0.142228 1.57663 0.0194702 1.875 0.0194702H22.125C22.4234 0.0194702 22.7095 0.142228 22.9205 0.360738C23.1315 0.579248 23.25 0.875611 23.25 1.18463C23.25 1.49365 23.1315 1.79001 22.9205 2.00852C22.7095 2.22703 22.4234 2.34979 22.125 2.34979H1.875C1.57663 2.34979 1.29048 2.22703 1.0795 2.00852C0.868526 1.79001 0.75 1.49365 0.75 1.18463Z" fill="#F6FAFF"/>
<path d="M0.75 8.21329C0.75 7.90427 0.868526 7.6079 1.0795 7.38939C1.29048 7.17088 1.57663 7.04813 1.875 7.04813H22.125C22.4234 7.04813 22.7095 7.17088 22.9205 7.38939C23.1315 7.6079 23.25 7.90427 23.25 8.21329C23.25 8.52231 23.1315 8.81867 22.9205 9.03718C22.7095 9.25569 22.4234 9.37845 22.125 9.37845H1.875C1.57663 9.37845 1.29048 9.25569 1.0795 9.03718C0.868526 8.81867 0.75 8.52231 0.75 8.21329Z" fill="#F6FAFF"/>
<path d="M1.875 14.0766C1.57663 14.0766 1.29048 14.1994 1.0795 14.4179C0.868526 14.6364 0.75 14.9328 0.75 15.2418C0.75 15.5508 0.868526 15.8472 1.0795 16.0657C1.29048 16.2842 1.57663 16.4069 1.875 16.4069H22.125C22.4234 16.4069 22.7095 16.2842 22.9205 16.0657C23.1315 15.8472 23.25 15.5508 23.25 15.2418C23.25 14.9328 23.1315 14.6364 22.9205 14.4179C22.7095 14.1994 22.4234 14.0766 22.125 14.0766H1.875Z" fill="#F6FAFF"/>
</svg>
