<svg width="19" height="21" viewBox="0 0 19 21" fill="none" xmlns="http://www.w3.org/2000/svg">
<path d="M16.598 4.65771C16.4504 4.58643 16.3066 4.50831 16.1674 4.42362C15.7626 4.17385 15.3915 3.87958 15.062 3.54714C14.2367 2.66613 13.9285 1.77242 13.8158 1.14728H13.8197C13.7254 0.627381 13.7642 0.291672 13.7711 0.291672H10.0138V13.8498C10.0138 14.0313 10.0138 14.2118 10.006 14.3896C10.006 14.4114 10.0031 14.4314 10.0021 14.4559C10.0021 14.465 10.0021 14.4758 9.99917 14.4858V14.494C9.95971 14.9803 9.79279 15.4502 9.51309 15.8622C9.23339 16.2742 8.84948 16.6157 8.39515 16.8567C7.92116 17.1083 7.38506 17.2403 6.83973 17.2395C5.08989 17.2395 3.67058 15.9076 3.67058 14.2626C3.67058 12.6167 5.08989 11.2848 6.83973 11.2848C7.17123 11.2848 7.50078 11.3338 7.81576 11.43L7.82062 7.85874C6.86405 7.74356 5.89229 7.8147 4.96666 8.06769C4.04104 8.32068 3.18166 8.75002 2.44277 9.3286C1.79519 9.85353 1.25073 10.4799 0.833888 11.1795C0.67543 11.4345 0.0765952 12.4607 0.00465723 14.1247C-0.0410331 15.0683 0.263245 16.0482 0.408093 16.452V16.4611C0.498501 16.6988 0.852358 17.5117 1.42786 18.1968C1.89195 18.7466 2.44029 19.2297 3.05521 19.6303V19.6213L3.06396 19.6303C4.88186 20.7826 6.89903 20.7073 6.89903 20.7073C7.24803 20.6937 8.41751 20.7073 9.74544 20.1203C11.2182 19.4688 12.0562 18.4989 12.0562 18.4989C12.592 17.9192 13.018 17.2586 13.3161 16.5454C13.6563 15.7107 13.7691 14.7108 13.7691 14.3116V7.11746C13.8148 7.14286 14.4224 7.51759 14.4224 7.51759C14.4224 7.51759 15.2973 8.04111 16.6612 8.38136C17.6392 8.62361 18.9584 8.67533 18.9584 8.67533V5.19393C18.4966 5.24112 17.5585 5.10502 16.597 4.65861L16.598 4.65771Z" fill="white"/>
</svg>
