<svg width="20" height="15" viewBox="0 0 20 15" fill="none" xmlns="http://www.w3.org/2000/svg">
<path d="M17.5937 3.84422C17.6042 4 17.6042 4.1624 17.6042 4.32149C17.6042 9.18702 13.6943 14.7917 6.54954 14.7917C4.3463 14.7917 2.30394 14.1851 0.583313 13.1411C0.898061 13.1742 1.19882 13.1875 1.52056 13.1875C3.33911 13.1875 5.01077 12.6042 6.34321 11.6165C4.63657 11.5833 3.20272 10.5227 2.71311 9.06439C3.31113 9.14725 3.8497 9.14725 4.46521 8.9981C3.58645 8.8289 2.79661 8.3766 2.22985 7.71803C1.6631 7.05946 1.3544 6.23525 1.35619 5.38541V5.33901C1.87028 5.6141 2.4753 5.78314 3.10829 5.80634C2.57617 5.47024 2.13977 5.0149 1.8378 4.48068C1.53583 3.94646 1.37761 3.34988 1.37718 2.74384C1.37718 2.05776 1.56603 1.43134 1.90526 0.887779C2.88063 2.02573 4.09776 2.95643 5.47752 3.61939C6.85729 4.28235 8.36881 4.66272 9.91385 4.73579C9.36479 2.23342 11.3372 0.208328 13.7083 0.208328C14.8274 0.208328 15.8346 0.652457 16.5445 1.36837C17.4223 1.21259 18.2617 0.901036 19.0101 0.483423C18.7198 1.33522 18.1113 2.05445 17.3034 2.50852C18.0868 2.42897 18.8422 2.22348 19.5416 1.93513C19.0136 2.67092 18.3526 3.32386 17.5937 3.84422Z" fill="white"/>
</svg>
