<svg width="22" height="21" viewBox="0 0 22 21" fill="none" xmlns="http://www.w3.org/2000/svg">
<path d="M18.5309 20.5357C17.9284 20.5357 17.316 20.3184 16.842 19.8641L1.78024 5.73077C0.782704 4.80237 0.733322 3.232 1.67159 2.24435C2.59999 1.24682 4.16048 1.19743 5.15801 2.1357L20.2197 16.2592C21.2173 17.1876 21.2667 18.7579 20.3284 19.7456C19.8444 20.269 19.1926 20.5357 18.5309 20.5357Z" fill="#22CFCD"/>
<path d="M3.93324 21C3.33077 21 2.71842 20.7827 2.24435 20.3284C1.24682 19.4 1.19743 17.8296 2.1357 16.842L16.2592 1.78024C17.1876 0.782704 18.7579 0.733322 19.7456 1.67159C20.753 2.59999 20.7925 4.16048 19.8641 5.15801L5.73077 20.2197C5.24682 20.7432 4.59496 21 3.93324 21Z" fill="#22CFCD"/>
</svg>
