<svg width="90" height="34" viewBox="0 0 90 34" fill="none" xmlns="http://www.w3.org/2000/svg">
<path d="M73.535 1.59861C80.4442 1.49244 79.4425 13.7593 88.2615 13.6238" stroke="#869ECE" stroke-width="3" stroke-miterlimit="10" stroke-linecap="round" stroke-linejoin="round"/>
<path d="M44.4684 2.04539C51.3776 1.93922 50.3759 14.2061 59.1949 14.0705" stroke="#869ECE" stroke-width="3" stroke-miterlimit="10" stroke-linecap="round" stroke-linejoin="round"/>
<path d="M73.535 1.59859C66.6258 1.70477 68.0039 13.935 59.1849 14.0706" stroke="#869ECE" stroke-width="3" stroke-miterlimit="10" stroke-linecap="round" stroke-linejoin="round"/>
<path d="M44.4684 2.04537C37.5592 2.15154 38.9373 14.3818 30.1183 14.5173" stroke="#869ECE" stroke-width="3" stroke-miterlimit="10" stroke-linecap="round" stroke-linejoin="round"/>
<path d="M45.3074 19.5344C52.2166 19.4282 51.2149 31.6951 60.0339 31.5595" stroke="#869ECE" stroke-width="3" stroke-miterlimit="10" stroke-linecap="round" stroke-linejoin="round"/>
<path d="M16.2407 19.9812C23.1499 19.875 22.1483 32.1418 30.9672 32.0063" stroke="#869ECE" stroke-width="3" stroke-miterlimit="10" stroke-linecap="round" stroke-linejoin="round"/>
<path d="M45.3073 19.5344C38.3982 19.6406 39.7762 31.8708 30.9573 32.0063" stroke="#869ECE" stroke-width="3" stroke-miterlimit="10" stroke-linecap="round" stroke-linejoin="round"/>
<path d="M16.2407 19.9812C9.3315 20.0873 10.7096 32.3176 1.89062 32.4531" stroke="#869ECE" stroke-width="3" stroke-miterlimit="10" stroke-linecap="round" stroke-linejoin="round"/>
</svg>
